<svg width="875" height="836" viewBox="0 0 875 836" fill="none" xmlns="http://www.w3.org/2000/svg">
<path d="M739.83 489.635L779.581 501.876L769.546 534.443L729.795 522.201L733.13 511.384L764.1 520.923L767.475 509.968L736.504 500.428L739.83 489.635Z" fill="white"/>
<path d="M729.342 563.522C726.882 562.422 724.859 561.103 723.257 559.574C721.654 558.045 720.497 556.346 719.769 554.485C719.049 552.624 718.757 550.633 718.911 548.514C719.057 546.402 719.647 544.201 720.675 541.919C721.63 539.791 722.844 537.987 724.301 536.514C725.765 535.042 727.441 533.933 729.326 533.205C731.212 532.477 733.275 532.178 735.501 532.315C737.726 532.453 740.065 533.068 742.525 534.176C745.778 535.633 748.263 537.461 749.978 539.662C751.694 541.855 752.649 544.322 752.835 547.057C753.021 549.792 752.431 552.689 751.055 555.755C749.784 558.571 748.077 560.82 745.908 562.487C743.747 564.154 741.255 565.108 738.447 565.359C735.63 565.602 732.604 564.995 729.35 563.539L729.342 563.522ZM737.896 544.476C736.213 543.724 734.74 543.238 733.453 543.012C732.167 542.785 731.082 542.866 730.2 543.246C729.31 543.627 728.63 544.347 728.153 545.398C727.683 546.45 727.602 547.429 727.918 548.319C728.234 549.209 728.905 550.059 729.925 550.86C730.945 551.661 732.296 552.438 733.979 553.19C735.655 553.943 737.119 554.428 738.374 554.647C739.628 554.865 740.68 554.784 741.538 554.412C742.396 554.04 743.059 553.312 743.545 552.244C744.233 550.706 744.095 549.306 743.124 548.044C742.153 546.79 740.413 545.593 737.904 544.468L737.896 544.476Z" fill="white"/>
<path d="M723.605 604.916L703.106 592.529L700.638 596.623L683.425 586.218L688.459 577.892L698.59 584.009L708.803 567.115L698.671 560.998L703.705 552.672L720.918 563.077L719.445 565.513C720.505 567.463 721.897 569.469 723.613 571.541C725.328 573.612 727.295 575.659 729.504 577.69C731.713 579.721 734.068 581.647 736.577 583.475L723.613 604.925L723.605 604.916ZM722.269 591.113L725.053 586.509C723.605 585.344 722.245 584.179 720.966 583.014C719.688 581.841 718.458 580.611 717.276 579.308C716.095 578.006 714.897 576.573 713.683 575.028L708.86 583.014L722.277 591.121L722.269 591.113Z" fill="white"/>
<path d="M705.016 630.678C702.815 633.478 699.958 634.797 696.462 634.627C692.966 634.457 689.106 632.717 684.882 629.4C682.001 627.135 679.905 624.837 678.569 622.49C677.242 620.144 676.627 617.886 676.732 615.71C676.838 613.533 677.59 611.567 678.982 609.787C679.921 608.598 680.86 607.7 681.815 607.109C682.761 606.519 683.676 606.122 684.55 605.928C685.424 605.734 686.241 605.637 686.994 605.628L687.204 605.361C686.565 604.981 685.885 604.552 685.173 604.075C684.461 603.598 683.66 603.015 682.761 602.311L673.503 595.029L680.382 586.283L716.726 614.852L711.134 621.964L706.95 620.662L706.634 621.066C706.958 621.997 707.169 622.984 707.266 624.02C707.355 625.055 707.233 626.131 706.893 627.256C706.554 628.381 705.93 629.521 705.016 630.678ZM700.735 621.997C701.407 621.147 701.73 620.314 701.714 619.505C701.698 618.696 701.366 617.862 700.727 617.013C700.088 616.155 699.173 615.241 697.984 614.262L697.288 613.72C695.944 612.668 694.73 611.883 693.654 611.373C692.57 610.863 691.598 610.677 690.733 610.815C689.867 610.952 689.082 611.47 688.378 612.36C687.803 613.088 687.536 613.865 687.56 614.691C687.593 615.508 687.965 616.406 688.669 617.377C689.381 618.348 690.482 619.416 691.971 620.589C694.196 622.337 695.993 623.283 697.368 623.437C698.744 623.591 699.869 623.113 700.735 622.013L700.735 621.997Z" fill="white"/>
<path d="M694.261 643.114L686.015 651.44L669.028 642.313C668.785 642.176 668.502 642.006 668.17 641.788C667.839 641.569 667.499 641.326 667.151 641.059C666.803 640.792 666.471 640.517 666.163 640.242L666.002 640.404C666.487 641.019 666.892 641.569 667.216 642.071C667.539 642.564 667.79 642.977 667.968 643.317L677.21 660.348L669.222 668.415L653.83 635.242C652.665 632.701 651.904 630.347 651.564 628.17C651.225 625.994 651.394 623.922 652.099 621.932C652.803 619.942 654.146 617.943 656.137 615.937C656.857 615.208 657.512 614.626 658.095 614.181C658.678 613.736 659.212 613.355 659.681 613.048L665.888 619.189C665.54 619.432 665.128 619.739 664.642 620.12C664.165 620.5 663.687 620.921 663.218 621.39C662.352 622.264 661.826 623.154 661.632 624.044C661.437 624.934 661.462 625.84 661.688 626.762C661.915 627.677 662.23 628.591 662.635 629.505L662.756 629.788L694.269 643.131L694.261 643.114Z" fill="white"/>
<path d="M622.844 704.671L622.293 685.868L602.523 679.621L612.194 672.315L630.799 678.764L620.934 665.713L629.585 659.175L639.45 672.226L638.325 652.573L647.996 645.267L648.602 665.988L666.544 671.652L657.011 678.853L639.604 672.428L649.023 684.889L640.372 691.426L630.961 678.966L632.385 697.462L622.852 704.663L622.844 704.671Z" fill="white"/>
<path d="M606.602 713.248L600.646 702.212C600.33 701.629 600.015 701.014 599.707 700.375C599.391 699.736 599.092 699.097 598.801 698.457C598.509 697.818 598.226 697.195 597.951 696.588C597.676 695.982 597.425 695.415 597.182 694.897L596.26 718.831L585.594 724.584L570.282 696.224L579.192 691.418L584.736 701.686C585.213 702.568 585.699 703.498 586.184 704.461C586.67 705.424 587.131 706.371 587.568 707.301C588.005 708.232 588.377 709.081 588.693 709.866L589.664 685.779L600.233 680.075L615.544 708.434L606.61 713.256L606.602 713.248Z" fill="white"/>
<path d="M536.035 743.962L524.899 713.717L534.189 710.295L539.587 724.948C540.113 726.388 540.615 727.812 541.068 729.22C541.529 730.628 541.918 731.938 542.242 733.152L542.403 733.095L541.189 707.714L548.295 705.1L563.873 725.255L564.035 725.198C563.493 724.041 562.934 722.795 562.376 721.444C561.818 720.093 561.235 718.596 560.636 716.962L555.319 702.519L564.609 699.097L575.745 729.341L561.518 734.576L549.08 718.329L550.035 738.8L536.043 743.945L536.035 743.962Z" fill="white"/>
<path d="M489.769 720.53C492.982 719.947 495.871 720.02 498.453 720.74C501.034 721.461 503.187 722.901 504.919 725.069C506.65 727.229 507.848 730.191 508.528 733.945C509.224 737.788 509.07 741.065 508.058 743.768C507.055 746.47 505.396 748.63 503.082 750.24C500.775 751.851 498.024 752.943 494.827 753.525C492.885 753.873 491.007 753.995 489.178 753.881C487.358 753.768 485.634 753.469 483.999 752.991L485.755 744.318C487.163 744.658 488.466 744.9 489.656 745.046C490.846 745.184 492.051 745.151 493.265 744.933C494.366 744.73 495.288 744.269 496.017 743.541C496.753 742.813 497.247 741.818 497.506 740.572C497.765 739.318 497.724 737.804 497.401 736.008C497.069 734.18 496.567 732.748 495.887 731.712C495.207 730.676 494.398 729.989 493.459 729.632C492.521 729.285 491.501 729.204 490.4 729.406C488.814 729.689 487.277 730.223 485.788 731.008C484.299 731.785 482.923 732.739 481.669 733.872L480.099 725.166C481.248 724.074 482.599 723.127 484.153 722.326C485.707 721.525 487.568 720.927 489.753 720.538L489.769 720.53Z" fill="white"/>
<path d="M429.941 757.992L429.237 725.773L440.356 725.53L440.882 749.472L449.217 749.286L448.691 725.344L459.81 725.101L460.515 757.32L429.941 757.992Z" fill="white"/>
<path d="M390.481 738.638C390.74 735.96 391.339 733.613 392.278 731.607C393.216 729.6 394.447 727.958 395.984 726.679C397.522 725.401 399.31 724.486 401.366 723.952C403.421 723.418 405.687 723.273 408.18 723.516C410.502 723.742 412.598 724.308 414.46 725.223C416.321 726.137 417.907 727.375 419.202 728.928C420.497 730.482 421.443 732.335 422.026 734.487C422.609 736.639 422.771 739.059 422.512 741.737C422.172 745.289 421.233 748.226 419.704 750.556C418.174 752.886 416.143 754.577 413.61 755.629C411.077 756.681 408.139 757.045 404.805 756.721C401.73 756.422 399.051 755.516 396.777 754.003C394.503 752.49 392.804 750.435 391.671 747.854C390.538 745.264 390.141 742.198 390.489 738.654L390.481 738.638ZM411.271 740.644C411.449 738.816 411.441 737.254 411.239 735.968C411.036 734.681 410.616 733.678 409.968 732.958C409.321 732.238 408.422 731.825 407.273 731.712C406.124 731.599 405.177 731.841 404.433 732.424C403.688 733.006 403.106 733.913 402.669 735.142C402.24 736.372 401.932 737.893 401.754 739.73C401.576 741.559 401.584 743.104 401.778 744.366C401.973 745.62 402.385 746.599 403.009 747.287C403.632 747.975 404.538 748.379 405.703 748.493C407.387 748.655 408.665 748.072 409.547 746.745C410.429 745.418 411.004 743.387 411.263 740.652L411.271 740.644Z" fill="white"/>
<path d="M352.657 738.832L363.039 741.033L368.008 717.601L378.893 719.907L373.924 743.339L384.307 745.54L382.591 753.639L350.949 746.931L352.665 738.832L352.657 738.832Z" fill="white"/>
<path d="M324.648 739.18C321.265 738.055 319.056 735.822 318.028 732.472C317 729.123 317.332 724.907 319.024 719.81C320.173 716.339 321.629 713.58 323.386 711.533C325.142 709.486 327.06 708.151 329.139 707.511C331.219 706.872 333.331 706.905 335.476 707.617C336.916 708.094 338.074 708.677 338.956 709.372C339.838 710.06 340.518 710.788 340.995 711.549C341.472 712.31 341.845 713.038 342.112 713.75L342.435 713.855C342.581 713.127 342.751 712.342 342.961 711.508C343.164 710.675 343.447 709.72 343.811 708.644L347.518 697.47L358.078 700.974L343.528 744.844L334.942 741.996L334.748 737.618L334.262 737.457C333.493 738.08 332.643 738.614 331.697 739.051C330.75 739.487 329.698 739.738 328.524 739.795C327.359 739.86 326.064 739.657 324.664 739.188L324.648 739.18ZM331.365 732.205C332.393 732.545 333.283 732.57 334.035 732.278C334.788 731.987 335.46 731.396 336.05 730.506C336.641 729.608 337.191 728.443 337.709 726.995L337.985 726.161C338.519 724.543 338.85 723.135 338.964 721.946C339.077 720.757 338.923 719.778 338.503 719.009C338.082 718.24 337.329 717.674 336.245 717.318C335.363 717.027 334.537 717.035 333.776 717.342C333.016 717.65 332.295 718.297 331.632 719.3C330.96 720.295 330.329 721.695 329.73 723.491C328.84 726.17 328.557 728.184 328.88 729.535C329.204 730.879 330.03 731.777 331.365 732.214L331.365 732.205Z" fill="white"/>
<path d="M292.326 726.072C289.486 724.754 287.268 723.127 285.658 721.177C284.056 719.227 283.149 717.01 282.947 714.51C282.745 712.01 283.335 709.275 284.719 706.298L286.799 701.807L304.837 710.173C305.46 708.604 305.469 707.083 304.87 705.61C304.263 704.137 302.936 702.924 300.864 701.969C299.043 701.128 297.287 700.529 295.596 700.181C293.904 699.833 292.075 699.671 290.109 699.679L293.475 692.43C295.231 692.341 297.02 692.519 298.849 692.948C300.678 693.376 302.863 694.185 305.412 695.367C308.358 696.734 310.745 698.474 312.582 700.602C314.419 702.73 315.495 705.197 315.803 708.021C316.118 710.845 315.471 713.984 313.869 717.439C312.242 720.951 310.3 723.556 308.042 725.263C305.792 726.971 303.324 727.861 300.653 727.95C297.983 728.039 295.207 727.416 292.334 726.081L292.326 726.072ZM295.15 719.041C296.34 719.591 297.505 719.68 298.655 719.3C299.804 718.92 300.815 717.965 301.697 716.428L293.022 712.407C292.642 713.272 292.448 714.138 292.448 714.996C292.448 715.853 292.666 716.63 293.103 717.334C293.54 718.038 294.22 718.604 295.15 719.033L295.15 719.041Z" fill="white"/>
<path d="M278.836 704.599C276.416 708.547 273.81 711.622 271.018 713.839C268.226 716.056 265.046 717.277 261.477 717.504C257.908 717.73 253.773 716.824 249.063 714.785C247.485 714.089 245.761 713.296 243.876 712.406C241.998 711.516 240.129 710.61 238.276 709.672L242.201 701.265C243.067 701.702 243.989 702.171 244.968 702.657C245.948 703.142 246.935 703.628 247.938 704.097C248.942 704.566 249.913 705.027 250.868 705.472C251.815 705.917 252.689 706.322 253.498 706.686C255.901 707.803 257.868 708.385 259.389 708.426C260.911 708.466 262.189 708.094 263.225 707.309C264.261 706.524 265.273 705.44 266.252 704.056L265.839 703.806C265.167 704.218 264.31 704.526 263.266 704.736C262.23 704.946 261.081 704.946 259.826 704.736C258.572 704.534 257.277 704.024 255.958 703.215C253.919 701.969 252.341 700.44 251.224 698.644C250.107 696.847 249.605 694.784 249.735 692.478C249.864 690.164 250.787 687.615 252.503 684.816C254.437 681.66 256.646 679.395 259.138 678.003C261.623 676.612 264.253 676.029 267.013 676.255C269.78 676.482 272.54 677.445 275.307 679.136C277.428 680.439 279.111 681.976 280.357 683.764C281.603 685.552 282.405 687.543 282.736 689.727C283.076 691.912 282.931 694.258 282.291 696.766C281.652 699.275 280.503 701.88 278.844 704.59L278.836 704.599ZM270.5 685.876C269.724 685.398 268.914 685.18 268.081 685.229C267.239 685.269 266.381 685.649 265.483 686.361C264.593 687.073 263.687 688.174 262.764 689.679C261.671 691.459 261.04 693.085 260.862 694.549C260.684 696.022 261.267 697.163 262.61 697.988C263.371 698.457 264.237 698.7 265.208 698.733C266.179 698.765 267.093 698.668 267.935 698.449C268.777 698.231 269.408 697.988 269.829 697.705C270.468 696.669 271.01 695.577 271.48 694.412C271.949 693.255 272.265 692.122 272.427 691.022C272.588 689.921 272.532 688.918 272.248 688.028C271.965 687.13 271.383 686.418 270.517 685.876L270.5 685.876Z" fill="white"/>
<path d="M228.516 686.814L236.358 677.024C236.771 676.506 237.216 675.98 237.677 675.438C238.138 674.896 238.616 674.37 239.093 673.853C239.571 673.335 240.032 672.833 240.485 672.339C240.938 671.854 241.359 671.401 241.74 670.98L219.339 679.468L209.879 671.894L230.021 646.739L237.928 653.067L230.636 662.169C230.005 662.954 229.342 663.755 228.646 664.588C227.95 665.422 227.254 666.206 226.574 666.975C225.894 667.744 225.247 668.415 224.656 669.006L247.21 660.502L256.581 668.003L236.439 693.158L228.508 686.814L228.516 686.814Z" fill="white"/>
<path d="M187.301 637.645L194.729 645.218L211.837 628.453L219.622 636.399L202.515 653.164L209.944 660.737L204.028 666.53L181.385 643.438L187.292 637.645L187.301 637.645Z" fill="white"/>
<path d="M166.988 626.495C165.054 624.036 163.816 621.568 163.274 619.108C162.731 616.64 162.934 614.254 163.889 611.94C164.844 609.625 166.616 607.457 169.197 605.434L173.098 602.384L185.366 618.032C186.637 616.916 187.341 615.564 187.471 613.978C187.6 612.393 186.969 610.71 185.561 608.913C184.322 607.328 183.028 606.001 181.676 604.925C180.325 603.848 178.779 602.869 177.015 601.979L183.311 597.052C184.913 597.772 186.427 598.735 187.859 599.957C189.291 601.17 190.877 602.886 192.609 605.086C194.608 607.635 195.943 610.281 196.615 613.008C197.287 615.734 197.117 618.429 196.113 621.082C195.11 623.736 193.111 626.236 190.109 628.591C187.066 630.978 184.153 632.418 181.369 632.912C178.585 633.405 175.987 633.081 173.559 631.949C171.132 630.816 168.947 628.996 166.996 626.503L166.988 626.495ZM172.702 621.511C173.511 622.539 174.506 623.146 175.704 623.332C176.893 623.518 178.237 623.129 179.718 622.159L173.818 614.634C173.082 615.233 172.523 615.912 172.135 616.681C171.747 617.441 171.585 618.234 171.658 619.068C171.73 619.893 172.078 620.71 172.71 621.511L172.702 621.511Z" fill="white"/>
<path d="M163.638 562.454L169.424 571.953L148.958 584.406L152.365 589.996C156.395 588.006 159.891 586.453 162.861 585.328C165.831 584.195 168.388 583.548 170.541 583.362C172.693 583.184 174.539 583.499 176.068 584.308C177.598 585.126 178.933 586.477 180.09 588.37C180.543 589.115 180.94 589.924 181.28 590.789C181.62 591.655 181.854 592.432 181.976 593.112L174.903 597.416C174.87 596.995 174.773 596.591 174.628 596.202C174.482 595.814 174.288 595.417 174.037 595.013C173.794 594.608 173.43 594.309 172.952 594.107C172.475 593.904 171.747 593.88 170.767 594.018C169.788 594.163 168.453 594.544 166.762 595.175C165.07 595.806 162.901 596.736 160.255 597.974C157.609 599.204 154.356 600.83 150.495 602.845L136.099 579.203L163.63 562.446L163.638 562.454Z" fill="white"/>
<path d="M124.818 557.082C123.515 554.234 122.884 551.556 122.932 549.031C122.981 546.507 123.733 544.233 125.206 542.202C126.679 540.172 128.904 538.481 131.891 537.113L136.39 535.058L144.661 553.142C146.158 552.357 147.153 551.2 147.647 549.695C148.149 548.182 147.922 546.394 146.975 544.322C146.142 542.494 145.187 540.9 144.127 539.54C143.067 538.181 141.788 536.862 140.283 535.592L147.55 532.267C148.942 533.343 150.188 534.637 151.297 536.15C152.405 537.663 153.546 539.702 154.712 542.251C156.063 545.196 156.743 548.077 156.759 550.884C156.775 553.692 155.982 556.273 154.388 558.619C152.794 560.966 150.261 562.932 146.797 564.518C143.277 566.128 140.113 566.848 137.288 566.678C134.464 566.508 132.012 565.586 129.924 563.919C127.836 562.244 126.129 559.97 124.81 557.09L124.818 557.082ZM131.535 553.57C132.077 554.76 132.91 555.585 134.027 556.046C135.144 556.507 136.536 556.435 138.203 555.844L134.229 547.154C133.372 547.567 132.667 548.101 132.109 548.748C131.551 549.395 131.211 550.132 131.081 550.949C130.952 551.766 131.106 552.64 131.535 553.57Z" fill="white"/>
<path d="M103.016 493.923L133.857 484.537L136.738 494.004L121.799 498.551C120.326 498.996 118.878 499.409 117.445 499.789C116.013 500.161 114.678 500.485 113.448 500.736L113.496 500.898L138.907 501.132L141.108 508.374L120.092 522.768L120.14 522.93C121.322 522.452 122.6 521.975 123.984 521.489C125.368 521.004 126.889 520.518 128.556 520.009L143.285 515.526L146.166 525.001L115.325 534.386L110.906 519.879L127.844 508.39L107.346 508.171L103.008 493.915L103.016 493.923Z" fill="white"/>
<path d="M135.298 339.48L95.547 327.239L105.582 294.672L145.333 306.914L141.998 317.732L111.028 308.192L107.654 319.147L138.624 328.687L135.298 339.48Z" fill="white"/>
<path d="M145.794 265.593C148.254 266.693 150.277 268.012 151.879 269.541C153.482 271.07 154.639 272.761 155.367 274.63C156.088 276.491 156.379 278.482 156.225 280.602C156.08 282.713 155.489 284.914 154.461 287.204C153.506 289.332 152.3 291.136 150.836 292.609C149.371 294.081 147.696 295.19 145.81 295.918C143.924 296.646 141.869 296.946 139.644 296.816C137.418 296.679 135.079 296.064 132.619 294.955C129.366 293.499 126.881 291.67 125.166 289.469C123.45 287.277 122.495 284.809 122.309 282.074C122.123 279.339 122.714 276.443 124.09 273.376C125.36 270.552 127.068 268.311 129.236 266.644C131.397 264.978 133.89 264.015 136.698 263.772C139.514 263.529 142.541 264.136 145.794 265.593ZM137.24 284.639C138.915 285.391 140.396 285.885 141.683 286.103C142.97 286.322 144.054 286.249 144.936 285.869C145.818 285.489 146.506 284.768 146.975 283.717C147.453 282.665 147.526 281.686 147.21 280.796C146.894 279.906 146.223 279.056 145.203 278.255C144.183 277.454 142.832 276.677 141.149 275.925C139.474 275.172 138.009 274.687 136.754 274.469C135.5 274.25 134.448 274.331 133.59 274.703C132.732 275.075 132.069 275.804 131.583 276.872C130.895 278.409 131.033 279.809 132.004 281.071C132.975 282.333 134.715 283.522 137.224 284.647L137.24 284.639Z" fill="white"/>
<path d="M151.523 224.199L172.022 236.586L174.49 232.492L191.703 242.897L186.67 251.223L176.538 245.098L166.325 261.992L176.457 268.109L171.423 276.435L154.21 266.03L155.683 263.594C154.623 261.644 153.231 259.638 151.515 257.566C149.8 255.495 147.833 253.448 145.624 251.417C143.415 249.386 141.06 247.46 138.551 245.632L151.515 224.182L151.523 224.199ZM152.859 238.002L150.075 242.606C151.523 243.771 152.883 244.936 154.162 246.101C155.44 247.274 156.67 248.512 157.852 249.815C159.033 251.118 160.231 252.55 161.445 254.095L166.268 246.109L152.851 238.002L152.859 238.002Z" fill="white"/>
<path d="M170.112 198.437C172.313 195.637 175.17 194.318 178.666 194.488C182.162 194.658 186.022 196.398 190.238 199.715C193.119 201.98 195.223 204.278 196.551 206.625C197.878 208.971 198.493 211.229 198.388 213.405C198.282 215.582 197.53 217.548 196.138 219.328C195.199 220.517 194.26 221.415 193.305 222.006C192.359 222.597 191.444 222.993 190.57 223.187C189.696 223.381 188.879 223.478 188.126 223.487L187.916 223.754C188.555 224.134 189.235 224.563 189.947 225.04C190.659 225.517 191.46 226.108 192.359 226.804L201.617 234.078L194.746 242.824L158.402 214.255L163.994 207.143L168.178 208.445L168.494 208.041C168.162 207.11 167.951 206.123 167.862 205.087C167.773 204.052 167.895 202.976 168.235 201.851C168.575 200.734 169.198 199.585 170.112 198.428L170.112 198.437ZM174.393 207.118C173.721 207.968 173.398 208.801 173.414 209.61C173.43 210.419 173.762 211.253 174.401 212.102C175.041 212.96 175.955 213.874 177.145 214.853L177.841 215.395C179.184 216.447 180.398 217.232 181.474 217.742C182.559 218.252 183.53 218.446 184.396 218.3C185.261 218.163 186.046 217.645 186.75 216.755C187.325 216.027 187.6 215.25 187.568 214.425C187.535 213.607 187.163 212.709 186.451 211.738C185.739 210.767 184.638 209.699 183.149 208.526C180.932 206.778 179.127 205.832 177.752 205.678C176.376 205.524 175.251 206.002 174.385 207.102L174.393 207.118Z" fill="white"/>
<path d="M180.867 186.001L189.114 177.675L206.1 186.802C206.343 186.939 206.626 187.109 206.958 187.327C207.29 187.546 207.629 187.789 207.977 188.056C208.325 188.323 208.657 188.598 208.965 188.873L209.127 188.711C208.641 188.096 208.236 187.546 207.913 187.044C207.589 186.551 207.338 186.138 207.16 185.798L197.918 168.767L205.906 160.7L221.298 193.873C222.463 196.414 223.224 198.768 223.564 200.945C223.912 203.113 223.734 205.193 223.03 207.183C222.326 209.173 220.982 211.172 218.991 213.178C218.271 213.907 217.616 214.489 217.033 214.934C216.45 215.379 215.916 215.76 215.447 216.067L209.24 209.926C209.588 209.683 210.001 209.376 210.486 208.995C210.964 208.615 211.441 208.194 211.91 207.717C212.776 206.843 213.302 205.953 213.497 205.063C213.691 204.173 213.667 203.267 213.44 202.345C213.213 201.43 212.898 200.516 212.493 199.602L212.372 199.318L180.859 185.976L180.867 186.001Z" fill="white"/>
<path d="M252.284 124.444L252.835 143.247L272.605 149.494L262.934 156.8L244.329 150.351L254.194 163.402L245.543 169.94L235.678 156.889L236.803 176.542L227.133 183.848L226.526 163.127L208.584 157.463L218.117 150.262L235.525 156.687L226.105 144.226L234.756 137.697L244.168 150.157L242.743 131.661L252.276 124.46L252.284 124.444Z" fill="white"/>
<path d="M268.526 115.867L274.482 126.903C274.798 127.486 275.114 128.101 275.421 128.74C275.737 129.379 276.036 130.018 276.327 130.658C276.619 131.297 276.902 131.92 277.177 132.527C277.452 133.133 277.703 133.7 277.946 134.218L278.869 110.284L289.535 104.531L304.846 132.891L295.936 137.697L290.392 127.429C289.915 126.547 289.429 125.617 288.944 124.654C288.458 123.691 287.997 122.744 287.56 121.814C287.123 120.883 286.751 120.034 286.435 119.249L285.464 143.336L274.895 149.041L259.584 120.681L268.526 115.859L268.526 115.867Z" fill="white"/>
<path d="M339.094 85.1533L350.229 115.398L340.939 118.82L335.541 104.167C335.007 102.727 334.513 101.303 334.06 99.8953C333.599 98.4874 333.21 97.1767 332.887 95.963L332.725 96.0197L333.939 121.393L326.833 124.007L311.255 103.852L311.093 103.909C311.635 105.057 312.194 106.311 312.752 107.663C313.311 109.014 313.893 110.503 314.492 112.145L319.809 126.588L310.519 130.01L299.383 99.7658L313.61 94.5309L326.048 110.778L325.093 90.3073L339.085 85.1614L339.094 85.1533Z" fill="white"/>
<path d="M385.367 108.585C382.154 109.168 379.265 109.095 376.684 108.375C374.11 107.655 371.949 106.214 370.218 104.046C368.486 101.886 367.288 98.9243 366.608 95.1701C365.912 91.3268 366.066 88.0499 367.078 85.3475C368.081 82.645 369.74 80.4847 372.055 78.8746C374.369 77.2645 377.121 76.1722 380.309 75.5897C382.251 75.2418 384.129 75.1203 385.958 75.2336C387.779 75.3469 389.502 75.6462 391.137 76.1236L389.381 84.7972C387.965 84.4574 386.67 84.2148 385.472 84.0691C384.283 83.9316 383.077 83.9639 381.863 84.1824C380.762 84.3847 379.84 84.8458 379.111 85.574C378.375 86.3022 377.881 87.2974 377.622 88.5434C377.363 89.7975 377.404 91.3106 377.728 93.1068C378.059 94.9354 378.561 96.3675 379.241 97.4032C379.921 98.4389 380.73 99.1266 381.669 99.4826C382.607 99.8305 383.627 99.9114 384.728 99.7091C386.314 99.426 387.851 98.892 389.34 98.1071C390.829 97.3304 392.205 96.3756 393.46 95.2428L395.03 103.949C393.88 105.041 392.529 105.988 390.975 106.789C389.421 107.59 387.56 108.189 385.375 108.585L385.367 108.585Z" fill="white"/>
<path d="M445.187 71.1234L445.891 103.342L434.772 103.585L434.246 79.6432L425.911 79.8294L426.437 103.771L415.318 104.014L414.614 71.7949L445.187 71.1234Z" fill="white"/>
<path d="M484.647 90.4773C484.388 93.1554 483.789 95.5019 482.85 97.5085C481.912 99.515 480.673 101.158 479.144 102.436C477.606 103.714 475.818 104.629 473.762 105.163C471.707 105.697 469.441 105.842 466.948 105.6C464.626 105.373 462.53 104.807 460.669 103.892C458.799 102.978 457.221 101.748 455.926 100.195C454.631 98.6412 453.685 96.7883 453.102 94.6361C452.519 92.4839 452.357 90.0647 452.616 87.3865C452.956 83.8345 453.895 80.8974 455.425 78.5672C456.954 76.237 458.985 74.5459 461.518 73.4941C464.051 72.4422 466.989 72.0782 470.323 72.4018C473.398 72.7012 476.077 73.6074 478.351 75.1204C480.625 76.6334 482.324 78.6885 483.457 81.2696C484.59 83.8587 484.987 86.9253 484.639 90.4773L484.647 90.4773ZM463.865 88.4707C463.687 90.2993 463.695 91.8609 463.897 93.1474C464.1 94.4338 464.521 95.4371 465.16 96.1572C465.807 96.8773 466.706 97.29 467.855 97.4033C469.004 97.5165 469.951 97.2738 470.695 96.6913C471.44 96.1087 472.022 95.2025 472.459 93.9727C472.888 92.7509 473.196 91.2217 473.374 89.385C473.552 87.5564 473.544 86.011 473.35 84.7488C473.155 83.4947 472.743 82.5157 472.12 81.8279C471.488 81.1402 470.59 80.7356 469.417 80.6224C467.733 80.4605 466.455 81.0431 465.573 82.362C464.691 83.6889 464.116 85.7197 463.857 88.4545L463.865 88.4707Z" fill="white"/>
<path d="M522.472 90.283L512.089 88.0823L507.12 111.514L496.235 109.208L501.204 85.7763L490.822 83.5756L492.537 75.4764L524.179 82.1839L522.464 90.283L522.472 90.283Z" fill="white"/>
<path d="M550.496 89.9352C553.879 91.0598 556.088 93.2929 557.116 96.6426C558.144 99.9923 557.812 104.208 556.121 109.305C554.971 112.776 553.515 115.535 551.759 117.582C550.003 119.629 548.085 120.964 546.005 121.604C543.925 122.243 541.813 122.211 539.668 121.498C538.228 121.021 537.071 120.439 536.189 119.743C535.306 119.055 534.627 118.327 534.149 117.566C533.672 116.806 533.3 116.077 533.032 115.365L532.709 115.26C532.563 115.988 532.393 116.773 532.183 117.607C531.98 118.44 531.697 119.395 531.333 120.471L527.627 131.645L517.066 128.141L531.624 84.2714L540.211 87.1195L540.405 91.4967L540.89 91.6586C541.659 91.0356 542.509 90.5015 543.456 90.0646C544.403 89.6276 545.455 89.3769 546.628 89.3202C547.793 89.2555 549.088 89.4578 550.488 89.9271L550.496 89.9352ZM543.779 96.9097C542.752 96.5699 541.862 96.5455 541.109 96.8368C540.356 97.1281 539.685 97.7188 539.094 98.6088C538.503 99.5069 537.953 100.672 537.435 102.12L537.16 102.954C536.626 104.572 536.294 105.98 536.18 107.169C536.067 108.359 536.221 109.338 536.642 110.106C537.063 110.875 537.815 111.441 538.9 111.797C539.782 112.089 540.599 112.08 541.368 111.773C542.129 111.466 542.841 110.818 543.512 109.815C544.184 108.82 544.815 107.42 545.414 105.624C546.304 102.938 546.588 100.931 546.264 99.5797C545.94 98.2366 545.115 97.3385 543.779 96.9016L543.779 96.9097Z" fill="white"/>
<path d="M582.802 103.043C585.642 104.362 587.86 105.988 589.47 107.938C591.073 109.888 591.979 112.105 592.181 114.605C592.384 117.105 591.793 119.84 590.409 122.817L588.329 127.308L570.291 118.942C569.668 120.511 569.66 122.032 570.258 123.505C570.865 124.978 572.193 126.191 574.264 127.146C576.085 127.988 577.849 128.586 579.532 128.934C581.224 129.282 583.053 129.444 585.019 129.436L581.653 136.685C579.897 136.774 578.108 136.596 576.279 136.168C574.45 135.739 572.265 134.93 569.716 133.748C566.77 132.381 564.383 130.641 562.546 128.513C560.709 126.385 559.633 123.918 559.325 121.094C559.01 118.278 559.657 115.131 561.259 111.676C562.886 108.164 564.828 105.559 567.078 103.852C569.328 102.145 571.796 101.255 574.467 101.166C577.145 101.077 579.913 101.7 582.786 103.035L582.802 103.043ZM579.978 110.074C578.788 109.524 577.623 109.435 576.473 109.815C575.324 110.195 574.313 111.15 573.431 112.687L582.106 116.709C582.486 115.843 582.681 114.977 582.681 114.119C582.681 113.262 582.462 112.485 582.025 111.781C581.588 111.077 580.908 110.511 579.978 110.082L579.978 110.074Z" fill="white"/>
<path d="M596.292 124.516C598.712 120.576 601.318 117.493 604.11 115.276C606.902 113.068 610.082 111.846 613.651 111.611C617.22 111.385 621.355 112.291 626.065 114.338C627.635 115.034 629.367 115.827 631.252 116.717C633.13 117.607 634.999 118.513 636.852 119.451L632.927 127.858C632.062 127.421 631.139 126.952 630.16 126.466C629.181 125.981 628.193 125.496 627.19 125.026C626.186 124.557 625.215 124.096 624.26 123.651C623.313 123.198 622.431 122.801 621.63 122.437C619.227 121.32 617.26 120.738 615.739 120.698C614.217 120.657 612.939 121.029 611.903 121.814C610.867 122.599 609.855 123.683 608.876 125.059L609.289 125.309C609.961 124.897 610.818 124.589 611.862 124.387C612.898 124.177 614.047 124.177 615.302 124.387C616.556 124.589 617.851 125.099 619.17 125.908C621.209 127.154 622.787 128.683 623.904 130.48C625.021 132.276 625.523 134.339 625.393 136.645C625.264 138.959 624.341 141.516 622.626 144.307C620.691 147.463 618.482 149.728 615.998 151.12C613.513 152.512 610.883 153.086 608.124 152.868C605.356 152.641 602.596 151.678 599.829 149.987C597.708 148.685 596.025 147.147 594.779 145.359C593.533 143.571 592.732 141.581 592.4 139.396C592.06 137.211 592.206 134.865 592.845 132.365C593.476 129.865 594.625 127.251 596.292 124.533L596.292 124.516ZM604.628 143.239C605.405 143.717 606.214 143.935 607.047 143.887C607.881 143.846 608.747 143.466 609.645 142.762C610.543 142.058 611.442 140.941 612.364 139.445C613.457 137.664 614.088 136.038 614.266 134.574C614.444 133.101 613.861 131.96 612.518 131.135C611.757 130.666 610.891 130.423 609.92 130.391C608.949 130.358 608.043 130.455 607.193 130.674C606.351 130.892 605.72 131.135 605.299 131.418C604.668 132.454 604.118 133.546 603.648 134.711C603.179 135.868 602.863 137.001 602.702 138.101C602.54 139.202 602.596 140.197 602.88 141.095C603.163 141.993 603.746 142.705 604.611 143.247L604.628 143.239Z" fill="white"/>
<path d="M646.612 142.301L638.77 152.091C638.358 152.609 637.912 153.135 637.451 153.677C636.982 154.219 636.512 154.745 636.035 155.263C635.558 155.78 635.096 156.282 634.643 156.776C634.19 157.261 633.769 157.722 633.389 158.135L655.789 149.647L665.249 157.221L645.107 182.376L637.2 176.049L644.492 166.946C645.123 166.161 645.787 165.36 646.483 164.527C647.179 163.702 647.874 162.909 648.554 162.14C649.234 161.379 649.881 160.7 650.472 160.109L627.918 168.621L618.547 161.121L638.689 135.965L646.62 142.309L646.612 142.301Z" fill="white"/>
<path d="M687.828 191.47L680.399 183.897L663.291 200.662L655.506 192.716L672.614 175.951L665.185 168.378L671.1 162.585L693.743 185.677L687.828 191.47Z" fill="white"/>
<path d="M708.14 202.62C710.074 205.079 711.312 207.547 711.855 210.007C712.397 212.467 712.194 214.862 711.239 217.176C710.285 219.49 708.512 221.658 705.931 223.681L702.038 226.731L689.77 211.083C688.499 212.2 687.795 213.551 687.666 215.137C687.536 216.722 688.167 218.405 689.576 220.202C690.814 221.779 692.109 223.114 693.46 224.191C694.812 225.267 696.357 226.246 698.121 227.136L691.833 232.063C690.231 231.343 688.718 230.372 687.277 229.158C685.845 227.945 684.259 226.229 682.527 224.021C680.528 221.472 679.193 218.826 678.521 216.099C677.849 213.373 678.019 210.678 679.023 208.025C680.026 205.371 682.025 202.871 685.028 200.516C688.07 198.129 690.984 196.689 693.768 196.195C696.551 195.702 699.149 196.025 701.577 197.158C703.997 198.299 706.19 200.111 708.14 202.604L708.14 202.62ZM702.427 207.604C701.617 206.576 700.622 205.969 699.424 205.783C698.227 205.597 696.891 205.986 695.41 206.957L701.31 214.481C702.046 213.882 702.605 213.203 702.993 212.434C703.382 211.674 703.543 210.881 703.471 210.047C703.406 209.222 703.05 208.405 702.419 207.596L702.427 207.604Z" fill="white"/>
<path d="M711.49 266.661L705.704 257.162L726.162 244.71L722.763 239.119C718.733 241.109 715.237 242.662 712.267 243.795C709.297 244.92 706.74 245.575 704.587 245.753C702.435 245.931 700.59 245.616 699.06 244.807C697.531 243.998 696.195 242.638 695.038 240.745C694.585 240 694.188 239.191 693.848 238.326C693.509 237.452 693.274 236.683 693.153 236.004L700.225 231.699C700.258 232.12 700.355 232.524 700.501 232.913C700.646 233.301 700.849 233.698 701.091 234.102C701.334 234.507 701.698 234.806 702.176 235.008C702.653 235.211 703.382 235.235 704.361 235.097C705.34 234.952 706.675 234.571 708.367 233.94C710.058 233.309 712.227 232.379 714.873 231.141C717.519 229.911 720.773 228.285 724.633 226.27L739.029 249.912L711.498 266.669L711.49 266.661Z" fill="white"/>
<path d="M750.319 272.033C751.622 274.881 752.253 277.559 752.204 280.084C752.156 282.608 751.403 284.882 749.93 286.913C748.457 288.943 746.232 290.635 743.246 292.002L738.746 294.057L730.476 275.973C728.978 276.758 727.983 277.907 727.489 279.42C726.988 280.933 727.214 282.721 728.161 284.793C728.995 286.621 729.95 288.215 731.01 289.575C732.07 290.934 733.348 292.253 734.854 293.523L727.587 296.849C726.195 295.772 724.948 294.478 723.84 292.965C722.731 291.452 721.59 289.413 720.425 286.864C719.073 283.911 718.393 281.039 718.385 278.223C718.369 275.415 719.162 272.834 720.756 270.488C722.351 268.141 724.884 266.175 728.347 264.589C731.868 262.979 735.032 262.259 737.856 262.429C740.672 262.599 743.132 263.521 745.22 265.188C747.308 266.863 749.016 269.137 750.327 272.017L750.319 272.033ZM743.602 275.545C743.06 274.355 742.226 273.53 741.109 273.069C739.992 272.608 738.601 272.68 736.933 273.271L740.907 281.961C741.765 281.548 742.469 281.014 743.027 280.367C743.586 279.72 743.925 278.983 744.055 278.166C744.184 277.349 744.031 276.475 743.602 275.545Z" fill="white"/>
<path d="M772.12 335.192L741.279 344.578L738.398 335.111L753.337 330.564C754.81 330.119 756.259 329.706 757.691 329.326C759.123 328.954 760.451 328.63 761.689 328.379L761.64 328.218L736.229 327.983L734.028 320.741L755.045 306.347L754.996 306.186C753.815 306.663 752.536 307.14 751.152 307.626C749.768 308.103 748.247 308.597 746.58 309.106L731.851 313.589L728.97 304.122L759.811 294.737L764.23 309.244L747.292 320.733L767.79 320.952L772.128 335.208L772.12 335.192Z" fill="white"/>
<path d="M89.3246 426.426C89.3038 426.552 89.2634 426.677 89.2025 426.797C88.8771 427.433 88.0884 427.69 87.4362 427.368C87.3127 427.308 75.1802 421.133 81.2006 407.331C81.4866 406.675 82.2629 406.374 82.9333 406.658C83.6038 406.944 83.9164 407.707 83.629 408.363C78.6047 419.885 88.2028 424.849 88.614 425.055C89.1418 425.319 89.4149 425.883 89.3246 426.426Z" fill="white"/>
<path d="M105.459 404.585L87.9476 407.479Z" fill="white"/>
<path d="M105.517 410.579L86.6998 413.688Z" fill="white"/>
<path d="M108.662 416.112L90.5764 419.1Z" fill="white"/>
<path d="M120.638 420.397L96.2059 424.096Z" fill="white"/>
<path d="M98.6887 393.143C98.659 393.901 99.256 394.545 100.015 394.575L119.412 395.336C125.977 395.593 131.104 401.129 130.847 407.682C130.59 414.228 125.045 419.346 118.481 419.089C111.923 418.831 106.796 413.295 107.053 406.749C107.072 406.253 107.119 405.765 107.2 405.285C107.192 405.319 107.215 405.219 107.226 405.134C107.286 404.667 107.168 404.165 106.838 403.773C106.329 403.173 105.506 402.996 104.817 403.294L87.7225 406.118C86.9687 406.242 86.4579 406.95 86.5842 407.704C86.709 408.455 87.4207 408.964 88.1731 408.84L104.324 406.171C104.304 406.327 104.298 406.484 104.291 406.641C104.255 407.566 104.31 408.474 104.441 409.359L86.4742 412.327C85.7211 412.452 85.2121 413.161 85.3364 413.914C85.4617 414.665 86.1729 415.173 86.9248 415.049L105.105 412.045C105.479 413.11 105.973 414.121 106.572 415.06L90.3505 417.74C89.5976 417.864 89.0869 418.572 89.2128 419.326C89.338 420.077 90.0492 420.585 90.8011 420.461L108.55 417.529C109.642 418.626 110.907 419.552 112.304 420.263L95.9986 422.732C95.2434 422.846 94.7292 423.551 94.8397 424.303C94.9541 425.056 95.6591 425.573 96.4127 425.459L120.845 421.76C120.933 421.747 121.018 421.724 121.099 421.695C127.939 420.687 133.328 414.933 133.608 407.79C133.922 399.769 127.676 392.975 119.665 392.592C119.617 392.583 119.568 392.581 119.52 392.579L100.123 391.819C99.3641 391.789 98.7187 392.378 98.6887 393.143Z" fill="white"/>
<path d="M787.007 432.696C787.05 432.816 787.113 432.931 787.194 433.038C787.63 433.605 788.453 433.713 789.035 433.278C789.146 433.196 799.948 424.912 791.511 412.44C791.11 411.847 790.292 411.692 789.685 412.094C789.078 412.497 788.91 413.305 789.312 413.897C796.353 424.309 787.822 430.941 787.455 431.218C786.985 431.574 786.819 432.178 787.007 432.696Z" fill="white"/>
<path d="M767.158 414.164L784.904 413.815Z" fill="white"/>
<path d="M768.195 420.067L787.264 419.693Z" fill="white"/>
<path d="M766.112 426.081L784.439 425.721Z" fill="white"/>
<path d="M755.119 432.477L779.816 431.659Z" fill="white"/>
<path d="M771.728 401.678C771.896 402.418 771.426 403.161 770.685 403.328L751.752 407.613C745.345 409.063 741.314 415.441 742.762 421.838C744.208 428.227 750.594 432.248 757.001 430.798C763.402 429.349 767.433 422.971 765.987 416.582C765.877 416.098 765.742 415.626 765.574 415.169C765.589 415.201 765.548 415.107 765.521 415.025C765.377 414.577 765.402 414.062 765.655 413.616C766.046 412.934 766.823 412.61 767.554 412.776L784.877 412.436C785.641 412.421 786.273 413.024 786.286 413.788C786.3 414.55 785.693 415.179 784.931 415.194L768.564 415.516C768.612 415.666 768.647 415.819 768.682 415.972C768.886 416.875 768.998 417.778 769.031 418.671L787.237 418.314C788.001 418.299 788.63 418.904 788.645 419.666C788.659 420.427 788.053 421.057 787.291 421.072L768.867 421.434C768.694 422.549 768.393 423.632 767.975 424.665L784.413 424.342C785.176 424.327 785.808 424.93 785.821 425.694C785.835 426.455 785.229 427.085 784.467 427.1L766.481 427.453C765.607 428.732 764.532 429.873 763.288 430.827L779.771 430.281C780.534 430.255 781.168 430.855 781.197 431.614C781.222 432.375 780.623 433.012 779.861 433.037L755.164 433.856C755.074 433.859 754.987 433.852 754.902 433.839C747.993 434.094 741.645 429.419 740.067 422.448C738.294 414.618 743.196 406.799 751.003 404.962C751.049 404.944 751.096 404.933 751.143 404.923L770.076 400.638C770.817 400.47 771.559 400.932 771.728 401.678Z" fill="white"/>
</svg>
