<svg id="hihi" width="53" height="41" viewBox="0 0 53 41" fill="none" xmlns="http://www.w3.org/2000/svg">
<path d="M12.1322 39.4779C12.1338 39.6052 12.1161 39.7354 12.0771 39.864C11.8687 40.5478 11.1373 40.9389 10.4388 40.7371C10.3065 40.699 -2.72228 36.7521 0.779261 22.1076C0.945522 21.4115 1.65666 20.978 2.36673 21.1405C3.07688 21.3037 3.51883 22.0005 3.35114 22.6966C0.429631 34.9216 10.7508 38.1226 11.1917 38.2529C11.7577 38.4204 12.1256 38.927 12.1322 39.4779Z" fill="white"/>
<path d="M24.1779 15.1416L7.44713 21.067L24.1779 15.1416Z" fill="white"/>
<path d="M25.2883 21.0319L7.30995 27.3993L25.2883 21.0319Z" fill="white"/>
<path d="M29.3565 25.9258L12.0772 32.0457L29.3565 25.9258Z" fill="white"/>
<path d="M41.8985 28.0395L18.4969 35.9744L41.8985 28.0395Z" fill="white"/>
<path d="M15.502 5.06669C15.6059 5.81806 16.3069 6.34775 17.0596 6.24363L36.2885 3.58383C42.796 2.68368 48.8159 7.2324 49.7144 13.7289C50.612 20.2185 46.0528 26.2308 39.5452 27.1309C33.0442 28.0302 27.0242 23.4812 26.1267 16.9917C26.0587 16.5 26.0192 16.0111 26.0145 15.5241C26.0126 15.5596 26.0174 15.4574 26.0137 15.371C25.991 14.9009 25.7861 14.428 25.392 14.0995C24.786 13.5987 23.9446 13.5689 23.3187 13.9828L6.98638 19.7669C6.26614 20.0217 5.88773 20.8086 6.14455 21.5282C6.39948 22.2462 7.18936 22.6214 7.90824 22.3671L23.3386 16.9022C23.3469 17.0595 23.3679 17.2148 23.3894 17.3703C23.5163 18.2878 23.7299 19.1718 24.0142 20.0198L6.84865 26.0991C6.12917 26.3543 5.75274 27.1419 6.00734 27.8608C6.26268 28.5782 7.05209 28.9536 7.77051 28.6993L25.1403 22.5475C25.6958 23.5302 26.3588 24.4382 27.1135 25.2572L11.6157 30.7461C10.8965 31.0009 10.518 31.7874 10.7744 32.5073C11.0297 33.2247 11.8191 33.6003 12.5376 33.346L29.4949 27.3403C30.7626 28.2289 32.1712 28.9183 33.6712 29.3729L18.0533 34.6684C17.3298 34.9133 16.9475 35.6977 17.1883 36.418C17.4333 37.1393 18.2182 37.5251 18.9401 37.2801L42.3422 29.3454C42.4269 29.3167 42.5062 29.2795 42.5812 29.237C49.137 27.0421 53.431 20.4307 52.4517 13.3503C51.3519 5.39877 44.0091 -0.191934 36.0551 0.838389C36.0064 0.838049 35.9581 0.844719 35.9105 0.851301L16.6816 3.51111C15.929 3.61522 15.3971 4.30861 15.502 5.06669Z" fill="white"/>
</svg>
