<svg width="36" height="35" viewBox="0 0 36 35" fill="none" xmlns="http://www.w3.org/2000/svg">
<path d="M30.9747 17.1868C31.4657 17.3079 31.9392 17.4114 32.386 17.5C31.9392 17.5886 31.4657 17.6921 30.9747 17.8132C28.2252 18.4909 24.8501 19.7334 22.5856 22.0084C20.3742 24.23 19.1112 27.493 18.3987 30.1466C18.241 30.7339 18.1094 31.2949 18 31.8128C17.8906 31.2949 17.759 30.7339 17.6013 30.1466C16.8888 27.493 15.6258 24.23 13.4144 22.0084C11.1499 19.7334 7.77483 18.4909 5.02528 17.8132C4.53432 17.6921 4.06079 17.5886 3.61396 17.5C4.06079 17.4114 4.53432 17.3079 5.02528 17.1868C7.77483 16.5091 11.1499 15.2666 13.4144 12.9916C15.6258 10.77 16.8888 7.50695 17.6013 4.85336C17.759 4.26607 17.8906 3.70509 18 3.18722C18.1094 3.70509 18.241 4.26607 18.3987 4.85336C19.1112 7.50695 20.3742 10.77 22.5856 12.9916C24.8501 15.2666 28.2252 16.5091 30.9747 17.1868Z" stroke="white"/>
</svg>
