<svg width="88" height="87" viewBox="0 0 88 87" fill="none" xmlns="http://www.w3.org/2000/svg">
<path d="M44 83.0941C43.6693 81.0008 43.1421 78.2123 42.3284 75.1306C40.5972 68.5737 37.5511 60.6166 32.2819 55.2336C26.8892 49.7245 18.7976 46.6756 12.1131 45.0002C9.21339 44.2734 6.56387 43.8015 4.49054 43.5C6.56387 43.1985 9.21339 42.7266 12.1131 41.9998C18.7976 40.3244 26.8892 37.2755 32.2819 31.7664C37.5511 26.3834 40.5972 18.4263 42.3284 11.8694C43.1421 8.78771 43.6693 5.9992 44 3.90585C44.3307 5.9992 44.8579 8.78771 45.6716 11.8694C47.4028 18.4263 50.4489 26.3834 55.7181 31.7664C61.1108 37.2755 69.2024 40.3244 75.8869 41.9998C78.7866 42.7266 81.4361 43.1985 83.5095 43.5C81.4361 43.8015 78.7866 44.2734 75.8869 45.0002C69.2024 46.6756 61.1108 49.7245 55.7181 55.2336C50.4489 60.6166 47.4028 68.5737 45.6716 75.1306C44.8579 78.2123 44.3307 81.0008 44 83.0941Z" stroke="white"/>
</svg>
