<?xml version="1.0" encoding="UTF-8"?>
<svg xmlns="http://www.w3.org/2000/svg" viewBox="0 0 512 396.85">
	<path d="M.56,307.42V67.07C.56,40.24,.56,20.12,0,0H134.15c-.56,20.68-.56,39.13-.56,67.07v68.75h244.82V67.07c0-26.83,0-46.95-.56-67.07h134.15c-.56,20.68-.56,39.13-.56,67.07v240.35c0,36.89,0,64.28,.56,89.43h-134.15c.56-24.59,.56-51.98,.56-89.43v-57.57H133.59v57.57c0,36.89,0,64.28,.56,89.43H0c.56-24.59,.56-51.98,.56-89.43Z"/>
	<style>@media (prefers-color-scheme: light) { :root { filter: none; } }@media (prefers-color-scheme: dark) { :root { filter: invert(100%); } }</style>
</svg>